<?xml version="1.0" encoding="UTF-8" standalone="no"?>
<svg
   xmlns:dc="http://purl.org/dc/elements/1.1/"
   xmlns:cc="http://creativecommons.org/ns#"
   xmlns:rdf="http://www.w3.org/1999/02/22-rdf-syntax-ns#"
   xmlns:svg="http://www.w3.org/2000/svg"
   xmlns="http://www.w3.org/2000/svg"
   xmlns:sodipodi="http://sodipodi.sourceforge.net/DTD/sodipodi-0.dtd"
   xmlns:inkscape="http://www.inkscape.org/namespaces/inkscape"
   version="1.1"
   id="Capa_1"
   x="0px"
   y="0px"
   viewBox="0 0 282.568 282.568"
   style="enable-background:new 0 0 282.568 282.568;"
   xml:space="preserve"
   sodipodi:docname="crown_white.svg"
   inkscape:version="1.0.2 (e86c870879, 2021-01-15)"><metadata
   id="metadata39"><rdf:RDF><cc:Work
       rdf:about=""><dc:format>image/svg+xml</dc:format><dc:type
         rdf:resource="http://purl.org/dc/dcmitype/StillImage" /><dc:title></dc:title></cc:Work></rdf:RDF></metadata><defs
   id="defs37" /><sodipodi:namedview
   pagecolor="#ffffff"
   bordercolor="#666666"
   borderopacity="1"
   objecttolerance="10"
   gridtolerance="10"
   guidetolerance="10"
   inkscape:pageopacity="0"
   inkscape:pageshadow="2"
   inkscape:window-width="2560"
   inkscape:window-height="989"
   id="namedview35"
   showgrid="false"
   inkscape:zoom="2.2224739"
   inkscape:cx="141.284"
   inkscape:cy="141.284"
   inkscape:window-x="0"
   inkscape:window-y="0"
   inkscape:window-maximized="0"
   inkscape:current-layer="Capa_1" />
<path
   d="M217.608,258.075c0,4.142-3.358,7.5-7.5,7.5h-139c-4.142,0-7.5-3.358-7.5-7.5v-16c0-4.142,3.358-7.5,7.5-7.5h139  c4.142,0,7.5,3.358,7.5,7.5V258.075z M88.721,46.435c8.117,0,14.721-6.604,14.721-14.721s-6.604-14.721-14.721-14.721  S74,23.597,74,31.714S80.604,46.435,88.721,46.435z M193.721,46.435c8.117,0,14.721-6.604,14.721-14.721  s-6.604-14.721-14.721-14.721S179,23.597,179,31.714S185.604,46.435,193.721,46.435z M267.721,35.866  c-8.188,0-14.848,6.66-14.848,14.848s6.66,14.848,14.848,14.848s14.848-6.66,14.848-14.848S275.908,35.866,267.721,35.866z   M29.441,49.714c0-8.117-6.604-14.721-14.721-14.721S0,41.597,0,49.714s6.604,14.721,14.721,14.721S29.441,57.831,29.441,49.714z   M259.732,69.983c-3.39-1.733-7.542-0.653-9.656,2.514l-52.367,78.486l-0.394-90.936c-0.016-3.479-2.419-6.489-5.808-7.274  c-3.387-0.784-6.871,0.862-8.414,3.979l-42.279,85.426l-42.277-85.41c-1.542-3.117-5.032-4.765-8.414-3.979  c-3.389,0.785-5.793,3.796-5.808,7.274l-0.394,90.951L31.555,72.497c-2.111-3.167-6.264-4.251-9.655-2.516  c-3.391,1.735-4.942,5.735-3.609,9.303l49.5,132.417c1.096,2.932,3.896,4.874,7.025,4.874h132c3.129,0,5.93-1.942,7.025-4.874  l49.5-132.415C264.674,75.719,263.123,71.719,259.732,69.983z"
   id="path2"
   style="fill:#ffffff" />
<g
   id="g4">
</g>
<g
   id="g6">
</g>
<g
   id="g8">
</g>
<g
   id="g10">
</g>
<g
   id="g12">
</g>
<g
   id="g14">
</g>
<g
   id="g16">
</g>
<g
   id="g18">
</g>
<g
   id="g20">
</g>
<g
   id="g22">
</g>
<g
   id="g24">
</g>
<g
   id="g26">
</g>
<g
   id="g28">
</g>
<g
   id="g30">
</g>
<g
   id="g32">
</g>
</svg>
