<?xml version="1.0" encoding="iso-8859-1"?>
<!-- Generator: Adobe Illustrator 19.0.0, SVG Export Plug-In . SVG Version: 6.00 Build 0)  -->
<svg version="1.1" id="Capa_1" xmlns="http://www.w3.org/2000/svg" xmlns:xlink="http://www.w3.org/1999/xlink" x="0px" y="0px"
	 viewBox="0 0 512.001 512.001" style="enable-background:new 0 0 512.001 512.001;" xml:space="preserve">
<path d="M340.089,181.821c-2.63,0-5.21-1.069-7.07-2.93c-0.46-0.46-0.88-0.97-1.24-1.52c-0.36-0.54-0.67-1.12-0.92-1.721
	c-0.25-0.609-0.44-1.239-0.57-1.88c-0.13-0.64-0.2-1.3-0.2-1.95c0-0.649,0.07-1.31,0.2-1.949c0.13-0.641,0.32-1.271,0.57-1.88
	c0.25-0.601,0.56-1.181,0.92-1.721c0.36-0.55,0.78-1.06,1.24-1.52c2.33-2.32,5.78-3.391,9.03-2.73c0.63,0.12,1.26,0.32,1.87,0.57
	c0.6,0.25,1.18,0.56,1.72,0.91c0.55,0.37,1.06,0.79,1.53,1.25c0.46,0.46,0.87,0.97,1.24,1.52c0.36,0.54,0.67,1.12,0.92,1.721
	c0.25,0.609,0.44,1.239,0.57,1.88c0.13,0.64,0.19,1.3,0.19,1.949c0,0.65-0.06,1.311-0.19,1.95c-0.13,0.641-0.32,1.271-0.57,1.88
	c-0.25,0.601-0.56,1.181-0.92,1.721c-0.37,0.55-0.78,1.06-1.24,1.52c-0.47,0.46-0.98,0.88-1.53,1.24c-0.54,0.36-1.12,0.67-1.72,0.92
	c-0.61,0.26-1.24,0.45-1.87,0.58C341.4,181.761,340.739,181.821,340.089,181.821z"/>
<polygon style="fill:#FFC477;" points="171.135,413.059 120.613,463.626 122.43,389.702 172.951,339.135 "/>
<g>
	<polygon style="fill:#FF9929;" points="120.613,463.626 122.43,389.709 76.864,435.322 82.285,502.001 	"/>
	<polygon style="fill:#FF9929;" points="172.951,339.135 122.43,389.702 48.582,391.52 99.104,340.954 	"/>
</g>
<polygon style="fill:#FFC477;" points="122.43,389.702 48.59,391.52 10.254,429.896 76.864,435.322 "/>
<polygon style="fill:#C6C5CA;" points="501.745,10.001 446.059,142.727 369.157,65.746 "/>
<polygon style="fill:#898890;" points="407.608,104.236 393.371,176.583 335.336,118.488 "/>
<path d="M171.909,181.821c-0.65,0-1.31-0.06-1.96-0.189c-0.64-0.13-1.26-0.32-1.87-0.58c-0.6-0.25-1.18-0.56-1.72-0.92
	c-0.55-0.36-1.06-0.78-1.53-1.24c-0.46-0.46-0.87-0.97-1.24-1.52c-0.36-0.54-0.67-1.12-0.92-1.721c-0.25-0.609-0.44-1.239-0.57-1.88
	c-0.13-0.64-0.19-1.3-0.19-1.95c0-0.649,0.06-1.31,0.19-1.949c0.13-0.641,0.32-1.271,0.57-1.88c0.25-0.601,0.56-1.181,0.92-1.721
	c0.37-0.55,0.78-1.06,1.24-1.52c0.47-0.46,0.98-0.88,1.53-1.25c0.54-0.351,1.12-0.66,1.72-0.91c0.61-0.25,1.24-0.45,1.87-0.57
	c1.29-0.26,2.62-0.26,3.91,0c0.64,0.12,1.27,0.32,1.87,0.57c0.61,0.25,1.19,0.56,1.73,0.91c0.55,0.37,1.06,0.79,1.52,1.25
	s0.88,0.97,1.24,1.52c0.36,0.54,0.67,1.12,0.92,1.721c0.25,0.609,0.44,1.239,0.57,1.88c0.13,0.64,0.2,1.3,0.2,1.949
	c0,0.65-0.07,1.311-0.2,1.95c-0.13,0.641-0.32,1.271-0.57,1.88c-0.25,0.601-0.56,1.181-0.92,1.721c-0.36,0.55-0.78,1.06-1.24,1.52
	C177.119,180.751,174.54,181.821,171.909,181.821z"/>
<polygon style="fill:#FFC477;" points="340.864,413.059 391.386,463.626 389.569,389.702 339.048,339.135 "/>
<g>
	<polygon style="fill:#FF9929;" points="391.386,463.626 389.57,389.709 435.135,435.322 429.715,502.001 	"/>
	<polygon style="fill:#FF9929;" points="339.048,339.135 389.569,389.702 463.417,391.52 412.895,340.954 	"/>
</g>
<polygon style="fill:#FFC477;" points="389.569,389.702 463.409,391.52 501.745,429.896 435.135,435.322 "/>
<polygon style="fill:#C6C5CA;" points="10.254,10.001 65.941,142.727 142.842,65.746 "/>
<polygon style="fill:#898890;" points="104.391,104.236 118.629,176.583 176.664,118.488 "/>
<path d="M386.296,183.651c1.904,1.906,4.46,2.933,7.076,2.933c0.972,0,1.952-0.142,2.909-0.433c3.535-1.075,6.188-4.012,6.902-7.637
	l10.613-53.934l25.188,25.214c1.894,1.896,4.447,2.933,7.075,2.933c0.64,0,1.285-0.062,1.926-0.188
	c3.271-0.642,6.006-2.87,7.295-5.943L510.967,13.87c1.572-3.746,0.721-8.071-2.153-10.942c-2.874-2.872-7.199-3.718-10.944-2.146
	L365.281,56.527c-3.069,1.291-5.295,4.024-5.937,7.291c-0.642,3.268,0.385,6.64,2.738,8.995l25.211,25.237l-53.892,10.627
	c-3.622,0.715-6.556,3.366-7.632,6.898c-1.075,3.531-0.118,7.368,2.492,9.98L386.296,183.651z M483.052,28.708l-40.45,96.409
	L386.742,69.2L483.052,28.708z M394.918,116.932l-7.735,39.308l-31.532-31.564L394.918,116.932z"/>
<path d="M508.82,422.828l-88.851-88.943c-1.815-1.816-4.26-2.865-6.828-2.929l-69.856-1.72l-73.151-73.22l55.061-55.114
	c3.904-3.907,3.9-10.238-0.006-14.142c-3.908-3.904-10.239-3.901-14.142,0.007l-55.048,55.1l-55.048-55.1
	c-3.903-3.907-10.235-3.909-14.142-0.007c-3.907,3.903-3.91,10.234-0.006,14.142l55.061,55.114l-73.151,73.22l-69.856,1.72
	c-2.568,0.063-5.013,1.112-6.828,2.929l-88.85,88.943c-2.753,2.757-3.656,6.861-2.311,10.519c1.344,3.656,4.69,6.199,8.574,6.516
	l58.143,4.736l4.733,58.213c0.316,3.886,2.861,7.233,6.521,8.577c1.124,0.412,2.289,0.612,3.445,0.612
	c2.609,0,5.167-1.021,7.077-2.934l88.849-88.94c1.813-1.815,2.86-4.258,2.923-6.822l1.718-69.921l73.15-73.219l73.15,73.219
	l1.718,69.921c0.063,2.564,1.109,5.007,2.923,6.822l88.849,88.94c1.909,1.912,4.468,2.934,7.077,2.934
	c1.156,0,2.321-0.2,3.445-0.612c3.66-1.344,6.205-4.691,6.521-8.577l4.733-58.213l58.143-4.736c3.883-0.316,7.229-2.859,8.574-6.516
	C512.476,429.69,511.574,425.585,508.82,422.828z M103.35,350.852l44.862-1.104l-30.029,30.056l-20.35,0.501l-24.512,0.604
	L103.35,350.852z M52.837,401.418l44.86-1.104l-24.636,24.665l-40.467-3.297L52.837,401.418z M87.206,439.118l24.612-24.635
	l-1.103,44.902l-20.216,20.241L87.206,439.118z M161.236,408.818l-30.011,30.038l0.089-3.627l1.014-41.276l30.011-30.039
	L161.236,408.818z M438.678,380.908l-24.512-0.604l-20.35-0.501l-30.029-30.056l44.862,1.104L438.678,380.908z M350.763,408.818
	l-1.103-44.904l30.011,30.039l1.014,41.276l0.089,3.627L350.763,408.818z M421.501,479.626l-20.216-20.241l-1.103-44.902
	l24.612,24.635L421.501,479.626z M438.939,424.979l-24.636-24.665l44.86,1.104l20.243,20.264L438.939,424.979z"/>
<path d="M56.719,146.596c1.29,3.073,4.025,5.302,7.295,5.943c0.641,0.126,1.286,0.188,1.926,0.188c2.628,0,5.181-1.037,7.075-2.933
	l25.188-25.214l10.613,53.934c0.713,3.625,3.367,6.562,6.902,7.637c0.958,0.291,1.938,0.433,2.909,0.433
	c2.615,0,5.172-1.027,7.076-2.933l58.035-58.095c2.609-2.612,3.567-6.449,2.492-9.98c-1.076-3.532-4.01-6.184-7.632-6.898
	L124.706,98.05l25.211-25.237c2.353-2.355,3.379-5.728,2.738-8.995c-0.642-3.267-2.868-6-5.937-7.291L14.129,0.783
	C10.384-0.794,6.058,0.056,3.185,2.928C0.311,5.799-0.539,10.124,1.032,13.87L56.719,146.596z M124.817,156.24l-7.735-39.308
	l39.267,7.743L124.817,156.24z M125.257,69.2l-55.86,55.918l-40.45-96.409L125.257,69.2z"/>
<g>
</g>
<g>
</g>
<g>
</g>
<g>
</g>
<g>
</g>
<g>
</g>
<g>
</g>
<g>
</g>
<g>
</g>
<g>
</g>
<g>
</g>
<g>
</g>
<g>
</g>
<g>
</g>
<g>
</g>
</svg>
